<?xml version="1.0" encoding="UTF-8"?>
<svg width="111px" height="110px" viewBox="0 0 111 110" version="1.1" xmlns="http://www.w3.org/2000/svg" xmlns:xlink="http://www.w3.org/1999/xlink">
    <title>Button</title>
    <defs>
        <path d="M76.7532664,49.3658057 C77.08816,49.1053666 77.5862069,49.3490031 77.5862069,49.7606649 L77.5862069,66.9412423 C77.5862069,69.1675762 75.7399987,70.9738472 73.4644397,70.9738472 L37.7424569,70.9738472 C35.4668979,70.9738472 33.6206897,69.1675762 33.6206897,66.9412423 L33.6206897,49.7690662 C33.6206897,49.3490031 34.1101495,49.1137679 34.4536301,49.3742069 C36.3771215,50.8360262 38.927465,52.6927047 47.6862204,58.9180386 C49.4980805,60.2118327 52.5550579,62.9338411 55.6034483,62.9170386 C58.6690127,62.9422423 61.7860991,60.1614252 63.5292632,58.9180386 C72.2880186,52.6927047 74.8297751,50.827625 76.7532664,49.3658057 Z M55.6034483,60.220234 C57.5956358,60.253839 60.4636988,57.767066 61.9063173,56.7421122 C73.3012864,48.6516985 74.1685749,47.9459927 76.7962015,45.9296902 C77.2942484,45.5516335 77.5862069,44.9635453 77.5862069,44.341852 L77.5862069,42.7456125 C77.5862069,40.5192785 75.7399987,38.7130076 73.4644397,38.7130076 L37.7424569,38.7130076 C35.4668979,38.7130076 33.6206897,40.5192785 33.6206897,42.7456125 L33.6206897,44.341852 C33.6206897,44.9635453 33.9126482,45.5432322 34.410695,45.9296902 C37.0383217,47.9375914 37.9056102,48.6516985 49.3005792,56.7421122 C50.7431977,57.767066 53.6112608,60.253839 55.6034483,60.220234 Z" id="path-1"></path>
    </defs>
    <g id="Designs" stroke="none" stroke-width="1" fill="none" fill-rule="evenodd">
        <g id="Button" transform="translate(0.362069, 0.000000)">
            <ellipse id="Twitter" fill="#464E5E" cx="54.9568966" cy="54.8434274" rx="54.9568966" ry="54.8434274"></ellipse>
            <mask id="mask-2" fill="white">
                <use xlink:href="#path-1"></use>
            </mask>
            <use id="Mask" fill="#FFFFFF" fill-rule="nonzero" xlink:href="#path-1"></use>
        </g>
    </g>
</svg>