<svg width="112" height="110" viewBox="0 0 112 110" fill="none" xmlns="http://www.w3.org/2000/svg">
<g clip-path="url(#clip0_460_65)">
<path d="M55.819 109.687C86.1708 109.687 110.776 85.1326 110.776 54.8434C110.776 24.5542 86.1708 0 55.819 0C25.4671 0 0.862069 24.5542 0.862069 54.8434C0.862069 85.1326 25.4671 109.687 55.819 109.687Z" fill="black"/>
<path d="M55.819 109.687C86.1708 109.687 110.776 85.1326 110.776 54.8434C110.776 24.5542 86.1708 0 55.819 0C25.4671 0 0.862069 24.5542 0.862069 54.8434C0.862069 85.1326 25.4671 109.687 55.819 109.687Z" fill="white"/>
<path d="M77.6153 49.3658C77.9502 49.1054 78.4483 49.349 78.4483 49.7607V66.9412C78.4483 69.1676 76.6021 70.9738 74.3265 70.9738H38.6045C36.329 70.9738 34.4828 69.1676 34.4828 66.9412V49.7691C34.4828 49.349 34.9722 49.1138 35.3157 49.3742C37.2392 50.836 39.7895 52.6927 48.5483 58.918C50.3602 60.2118 53.4171 62.9338 56.4655 62.917C59.5311 62.9422 62.6482 60.1614 64.3913 58.918C73.1501 52.6927 75.6918 50.8276 77.6153 49.3658ZM56.4655 60.2202C58.4577 60.2538 61.3258 57.7671 62.7684 56.7421C74.1634 48.6517 75.0306 47.946 77.6583 45.9297C78.1563 45.5516 78.4483 44.9635 78.4483 44.3419V42.7456C78.4483 40.5193 76.6021 38.713 74.3265 38.713H38.6045C36.329 38.713 34.4828 40.5193 34.4828 42.7456V44.3419C34.4828 44.9635 34.7747 45.5432 35.2728 45.9297C37.9004 47.9376 38.7677 48.6517 50.1626 56.7421C51.6053 57.7671 54.4733 60.2538 56.4655 60.2202Z" fill="black"/>
</g>
<defs>
<clipPath id="clip0_460_65">
<rect width="111" height="110" fill="white" transform="translate(0.5)"/>
</clipPath>
</defs>
</svg>
