<svg width="160" height="80" viewBox="0 0 160 80" fill="none" xmlns="http://www.w3.org/2000/svg">
<path d="M0 40C0 17.9086 18.3121 0 40.4035 0C48.9038 0 57.3209 2.6722 64.2193 7.63872L66.5166 9.29266C74.6083 15.1183 85.4831 15.2485 93.712 9.61838L97.5856 6.96811C104.22 2.42883 112.071 0 120.11 0C142.141 0 160 17.9695 160 40C160 62.0305 142.141 80 120.11 80C112.071 80 104.22 77.5712 97.5856 73.0319L93.712 70.3816C85.4831 64.7515 74.6083 64.8817 66.5166 70.7073L64.2193 72.3613C57.3209 77.3278 48.9038 80 40.4035 80C18.3121 80 0 62.0914 0 40Z" fill="white"/>
</svg>
