<svg width="112" height="110" viewBox="0 0 112 110" fill="none" xmlns="http://www.w3.org/2000/svg">
<g clip-path="url(#clip0_460_65)">
<path d="M55.819 109.687C86.1708 109.687 110.776 85.1326 110.776 54.8434C110.776 24.5542 86.1708 0 55.819 0C25.4671 0 0.862069 24.5542 0.862069 54.8434C0.862069 85.1326 25.4671 109.687 55.819 109.687Z" fill="black"/>
<path d="M55.819 109.687C86.1708 109.687 110.776 85.1326 110.776 54.8434C110.776 24.5542 86.1708 0 55.819 0C25.4671 0 0.862069 24.5542 0.862069 54.8434C0.862069 85.1326 25.4671 109.687 55.819 109.687Z" fill="white"/>
<path d="M80.5183 48.614C80.8991 48.3178 81.4655 48.5949 81.4655 49.063V68.6017C81.4655 71.1336 79.3659 73.1878 76.778 73.1878H36.153C33.5651 73.1878 31.4655 71.1336 31.4655 68.6017V49.0726C31.4655 48.5949 32.0222 48.3273 32.4128 48.6235C34.6003 50.286 37.5007 52.3975 47.4616 59.4773C49.5222 60.9487 52.9987 64.0443 56.4655 64.0252C59.9518 64.0538 63.4968 60.8913 65.4792 59.4773C75.4401 52.3975 78.3308 50.2764 80.5183 48.614ZM56.4655 60.9582C58.7311 60.9964 61.9929 58.1684 63.6335 57.0027C76.5925 47.8019 77.5788 46.9993 80.5671 44.7062C81.1335 44.2763 81.4655 43.6075 81.4655 42.9005V41.0851C81.4655 38.5532 79.3659 36.499 76.778 36.499H36.153C33.5651 36.499 31.4655 38.5532 31.4655 41.0851V42.9005C31.4655 43.6075 31.7975 44.2667 32.364 44.7062C35.3522 46.9897 36.3386 47.8019 49.2975 57.0027C50.9382 58.1684 54.1999 60.9964 56.4655 60.9582Z" fill="black"/>
</g>
<defs>
<clipPath id="clip0_460_65">
<rect width="111" height="110" fill="white" transform="translate(0.5)"/>
</clipPath>
</defs>
</svg>
