<?xml version="1.0" encoding="UTF-8"?>
<svg width="110px" height="110px" viewBox="0 0 110 110" version="1.1" xmlns="http://www.w3.org/2000/svg" xmlns:xlink="http://www.w3.org/1999/xlink">
    <title>Button</title>
    <g id="Designs" stroke="none" stroke-width="1" fill="none" fill-rule="evenodd">
        <g id="Button">
            <ellipse id="Twitter" fill="#38A1F3" cx="54.9568966" cy="54.7378847" rx="54.9568966" ry="54.7378847"></ellipse>
            <path d="M75.5203044,48.2679121 C75.5490332,48.6905006 75.5490332,49.113182 75.5490332,49.5357705 C75.5490332,62.4252769 66.2159089,77.2770137 49.1576737,77.2770137 C43.9023494,77.2770137 39.0204102,75.6770684 34.9137931,72.900045 C35.6604749,72.9905466 36.3783395,73.0207448 37.15375,73.0207448 C41.4900201,73.0207448 45.4818107,71.4812887 48.6694621,68.8550704 C44.5915737,68.7644759 41.1741809,65.9571615 39.996745,62.0932829 C40.5711428,62.1837845 41.1454522,62.2441808 41.7485787,62.2441808 C42.5813582,62.2441808 43.4142262,62.1233882 44.1895483,61.9121868 C39.9393759,61.0065206 36.7516362,57.0823386 36.7516362,52.3430849 L36.7516362,52.2223852 C37.9864412,52.9468624 39.4224356,53.3996491 40.9443511,53.4599525 C38.445924,51.7091093 36.8090936,48.7206988 36.8090936,45.3398051 C36.8090936,43.5286584 37.2684881,41.8684097 38.0726273,40.4194553 C42.6387273,46.3359729 49.5022416,50.1997585 57.1984471,50.6224399 C57.0548918,49.8979627 56.9687057,49.1433802 56.9687057,48.3887048 C56.9687057,43.0154755 61.1040515,38.6385068 66.2444608,38.6385068 C68.9151719,38.6385068 71.3274127,39.8157707 73.021789,41.7175118 C75.1181022,41.2949233 77.1283177,40.4798516 78.9088801,39.3629841 C78.2195674,41.6270102 76.755021,43.5287514 74.8309917,44.7361205 C76.6976519,44.5249192 78.5068547,43.9814451 80.1724138,43.2268626 C78.9090569,45.158709 77.3295072,46.8792611 75.5203044,48.2679121 Z" id="Twitter" fill="#FFFFFF" fill-rule="nonzero"></path>
        </g>
    </g>
</svg>